<?xml version="1.0" encoding="UTF-8"?>
<svg version="1.1" xmlns="http://www.w3.org/2000/svg" width="1060" height="1070">
<path d="M0 0 C1.89430252 0.00273422 1.89430252 0.00273422 3.82687378 0.00552368 C24.2257784 0.05488067 44.3233438 0.74148441 64.5625 3.3125 C65.2282605 3.395 65.894021 3.4775 66.57995605 3.5625 C99.61078631 7.66546369 131.91826812 15.02035782 163.5625 25.3125 C164.68301758 25.67456543 165.80353516 26.03663086 166.95800781 26.40966797 C192.37308231 34.69881202 216.65608302 45.39317588 240.5625 57.3125 C241.47338379 57.76592773 242.38426758 58.21935547 243.32275391 58.68652344 C275.21565043 74.68263091 304.93608677 94.77999352 332.5625 117.3125 C333.88121094 118.37017578 333.88121094 118.37017578 335.2265625 119.44921875 C340.91425945 124.03943052 346.39301758 128.79823475 351.76171875 133.7578125 C353.21137119 135.08008962 354.66496731 136.39926806 356.16235352 137.66723633 C362.84872966 143.34657954 368.9829982 149.58236972 375.17163086 155.79125977 C377.1204687 157.74545624 379.07459272 159.69425147 381.02929688 161.64257812 C387.08586067 167.69561448 393.05302842 173.74976122 398.5625 180.3125 C399.51095949 181.39633858 400.46144267 182.47840999 401.4140625 183.55859375 C461.06309238 251.9416799 502.55899824 337.11966049 530.765625 516.95703125 C530.77264564 518.32712842 530.77973247 519.69722526 530.78688049 521.06732178 C530.80627806 525.41988598 530.81131419 529.77239693 530.8125 534.125 C530.81294186 534.86605358 530.81338371 535.60710716 530.81383896 536.37061691 C530.82065731 558.16534774 530.58337432 579.68140382 527.5625 601.3125 C527.38289324 602.66589704 527.2042157 604.01941766 527.02636719 605.37304688 C515.26700137 694.05863895 482.30590708 780.46993864 428.5625 852.3125 C427.50852909 853.7378485 426.45514234 855.16362913 425.40234375 856.58984375 C419.66125393 864.3389187 413.78111335 871.93766206 407.5625 879.3125 C407.11438965 879.84552734 406.6662793 880.37855469 406.20458984 880.92773438 C404.72436279 882.68497177 403.23830202 884.43709792 401.75 886.1875 C401.31300781 886.70393066 400.87601563 887.22036133 400.42578125 887.75244141 C391.28145868 898.43050452 381.51551744 908.52617369 371.56103516 918.44433594 C369.79601456 920.2039348 368.03648867 921.96890397 366.27734375 923.734375 C360.54258276 929.47285784 354.78033791 935.09216661 348.5625 940.3125 C347.51773704 941.212971 346.47344377 942.11398733 345.4296875 943.015625 C337.62945293 949.65498915 329.70341894 956.09495161 321.5625 962.3125 C320.86946777 962.84214355 320.17643555 963.37178711 319.46240234 963.91748047 C291.63344476 985.06551236 261.76312269 1002.64753961 230.5625 1018.3125 C229.71655273 1018.74014648 228.87060547 1019.16779297 227.99902344 1019.60839844 C178.92127089 1044.26092845 124.47940904 1059.14823988 70.25 1066.5625 C69.15703613 1066.71356201 68.06407227 1066.86462402 66.93798828 1067.02026367 C45.05730395 1069.83594471 23.16857983 1070.69157047 1.125 1070.625 C-0.13786835 1070.62317719 -1.40073669 1070.62135437 -2.70187378 1070.61947632 C-23.1007784 1070.57011933 -43.1983438 1069.88351559 -63.4375 1067.3125 C-64.1032605 1067.23 -64.769021 1067.1475 -65.45495605 1067.0625 C-98.48578631 1062.95953631 -130.79326812 1055.60464218 -162.4375 1045.3125 C-163.55801758 1044.95043457 -164.67853516 1044.58836914 -165.83300781 1044.21533203 C-191.24808231 1035.92618798 -215.53108302 1025.23182412 -239.4375 1013.3125 C-240.34838379 1012.85907227 -241.25926758 1012.40564453 -242.19775391 1011.93847656 C-274.09065043 995.94236909 -303.81108677 975.84500648 -331.4375 953.3125 C-332.31664062 952.60738281 -333.19578125 951.90226563 -334.1015625 951.17578125 C-339.78925945 946.58556948 -345.26801758 941.82676525 -350.63671875 936.8671875 C-352.08637119 935.54491038 -353.53996731 934.22573194 -355.03735352 932.95776367 C-361.72372966 927.27842046 -367.8579982 921.04263028 -374.04663086 914.83374023 C-375.9954687 912.87954376 -377.94959272 910.93074853 -379.90429688 908.98242188 C-385.96086067 902.92938552 -391.92802842 896.87523878 -397.4375 890.3125 C-398.38595949 889.22866142 -399.33644267 888.14659001 -400.2890625 887.06640625 C-458.91333 819.85813239 -500.04714565 736.42286866 -527.4375 592.3125 C-527.52363556 591.50779266 -527.60977112 590.70308533 -527.69851685 589.87399292 C-529.49942154 572.60619083 -529.80078188 555.38255816 -529.75555801 538.0396843 C-529.74991751 535.84287187 -529.74709719 533.64606717 -529.74447632 531.44924927 C-529.70829627 510.59259023 -529.30524851 490.00770877 -526.4375 469.3125 C-526.27121094 468.01505859 -526.10492187 466.71761719 -525.93359375 465.38085938 C-514.57783486 376.78648746 -481.03768379 289.96360479 -427.4375 218.3125 C-426.38352909 216.8871515 -425.33014234 215.46137087 -424.27734375 214.03515625 C-418.53625393 206.2860813 -412.65611335 198.68733794 -406.4375 191.3125 C-405.76533447 190.51295898 -405.76533447 190.51295898 -405.07958984 189.69726562 C-403.59936279 187.94002823 -402.11330202 186.18790208 -400.625 184.4375 C-399.96951172 183.662854 -399.96951172 183.662854 -399.30078125 182.87255859 C-390.15645868 172.19449548 -380.39051744 162.09882631 -370.43603516 152.18066406 C-368.67101456 150.4210652 -366.91148867 148.65609603 -365.15234375 146.890625 C-359.41758276 141.15214216 -353.65533791 135.53283339 -347.4375 130.3125 C-346.39273704 129.412029 -345.34844377 128.51101267 -344.3046875 127.609375 C-336.50445293 120.97001085 -328.57841894 114.53004839 -320.4375 108.3125 C-319.74446777 107.78285645 -319.05143555 107.25321289 -318.33740234 106.70751953 C-290.50844476 85.55948764 -260.63812269 67.97746039 -229.4375 52.3125 C-228.59155273 51.88485352 -227.74560547 51.45720703 -226.87402344 51.01660156 C-177.79627089 26.36407155 -123.35440904 11.47676012 -69.125 4.0625 C-68.03203613 3.91143799 -66.93907227 3.76037598 -65.81298828 3.60473633 C-43.93230395 0.78905529 -22.04357983 -0.06657047 0 0 Z " fill="#30AF56" transform="translate(529.4375,-0.3125)"/>
<path d="M0 0 C1.89430252 0.00273422 1.89430252 0.00273422 3.82687378 0.00552368 C24.2257784 0.05488067 44.3233438 0.74148441 64.5625 3.3125 C65.2282605 3.395 65.894021 3.4775 66.57995605 3.5625 C99.61078631 7.66546369 131.91826812 15.02035782 163.5625 25.3125 C164.68301758 25.67456543 165.80353516 26.03663086 166.95800781 26.40966797 C192.37308231 34.69881202 216.65608302 45.39317588 240.5625 57.3125 C241.47338379 57.76592773 242.38426758 58.21935547 243.32275391 58.68652344 C275.21565043 74.68263091 304.93608677 94.77999352 332.5625 117.3125 C333.88121094 118.37017578 333.88121094 118.37017578 335.2265625 119.44921875 C340.91425945 124.03943052 346.39301758 128.79823475 351.76171875 133.7578125 C353.21137119 135.08008962 354.66496731 136.39926806 356.16235352 137.66723633 C362.84872966 143.34657954 368.9829982 149.58236972 375.17163086 155.79125977 C377.1204687 157.74545624 379.07459272 159.69425147 381.02929688 161.64257812 C387.08586067 167.69561448 393.05302842 173.74976122 398.5625 180.3125 C399.51095949 181.39633858 400.46144267 182.47840999 401.4140625 183.55859375 C461.06309238 251.9416799 502.55899824 337.11966049 530.765625 516.95703125 C530.77264564 518.32712842 530.77973247 519.69722526 530.78688049 521.06732178 C530.80627806 525.41988598 530.81131419 529.77239693 530.8125 534.125 C530.81294186 534.86605358 530.81338371 535.60710716 530.81383896 536.37061691 C530.82065731 558.16534774 530.58337432 579.68140382 527.5625 601.3125 C527.38289324 602.66589704 527.2042157 604.01941766 527.02636719 605.37304688 C515.26700137 694.05863895 482.30590708 780.46993864 428.5625 852.3125 C427.50852909 853.7378485 426.45514234 855.16362913 425.40234375 856.58984375 C419.66125393 864.3389187 413.78111335 871.93766206 407.5625 879.3125 C407.11438965 879.84552734 406.6662793 880.37855469 406.20458984 880.92773438 C404.72436279 882.68497177 403.23830202 884.43709792 401.75 886.1875 C401.31300781 886.70393066 400.87601563 887.22036133 400.42578125 887.75244141 C391.28145868 898.43050452 381.51551744 908.52617369 371.56103516 918.44433594 C369.79601456 920.2039348 368.03648867 921.96890397 366.27734375 923.734375 C360.54258276 929.47285784 354.78033791 935.09216661 348.5625 940.3125 C347.51773704 941.212971 346.47344377 942.11398733 345.4296875 943.015625 C337.62945293 949.65498915 329.70341894 956.09495161 321.5625 962.3125 C320.86946777 962.84214355 320.17643555 963.37178711 319.46240234 963.91748047 C291.63344476 985.06551236 261.76312269 1002.64753961 230.5625 1018.3125 C229.71655273 1018.74014648 228.87060547 1019.16779297 227.99902344 1019.60839844 C178.92127089 1044.26092845 124.47940904 1059.14823988 70.25 1066.5625 C69.15703613 1066.71356201 68.06407227 1066.86462402 66.93798828 1067.02026367 C45.05730395 1069.83594471 23.16857983 1070.69157047 1.125 1070.625 C-0.13786835 1070.62317719 -1.40073669 1070.62135437 -2.70187378 1070.61947632 C-23.1007784 1070.57011933 -43.1983438 1069.88351559 -63.4375 1067.3125 C-64.1032605 1067.23 -64.769021 1067.1475 -65.45495605 1067.0625 C-98.48578631 1062.95953631 -130.79326812 1055.60464218 -162.4375 1045.3125 C-163.55801758 1044.95043457 -164.67853516 1044.58836914 -165.83300781 1044.21533203 C-191.24808231 1035.92618798 -215.53108302 1025.23182412 -239.4375 1013.3125 C-240.34838379 1012.85907227 -241.25926758 1012.40564453 -242.19775391 1011.93847656 C-274.09065043 995.94236909 -303.81108677 975.84500648 -331.4375 953.3125 C-332.31664062 952.60738281 -333.19578125 951.90226563 -334.1015625 951.17578125 C-339.78925945 946.58556948 -345.26801758 941.82676525 -350.63671875 936.8671875 C-352.08637119 935.54491038 -353.53996731 934.22573194 -355.03735352 932.95776367 C-361.72372966 927.27842046 -367.8579982 921.04263028 -374.04663086 914.83374023 C-375.9954687 912.87954376 -377.94959272 910.93074853 -379.90429688 908.98242188 C-385.96086067 902.92938552 -391.92802842 896.87523878 -397.4375 890.3125 C-398.38595949 889.22866142 -399.33644267 888.14659001 -400.2890625 887.06640625 C-458.91333 819.85813239 -500.04714565 736.42286866 -527.4375 592.3125 C-527.52363556 591.50779266 -527.60977112 590.70308533 -527.69851685 589.87399292 C-529.49942154 572.60619083 -529.80078188 555.38255816 -529.75555801 538.0396843 C-529.74991751 535.84287187 -529.74709719 533.64606717 -529.74447632 531.44924927 C-529.70829627 510.59259023 -529.30524851 490.00770877 -526.4375 469.3125 C-526.27121094 468.01505859 -526.10492187 466.71761719 -525.93359375 465.38085938 C-514.57783486 376.78648746 -481.03768379 289.96360479 -427.4375 218.3125 C-426.38352909 216.8871515 -425.33014234 215.46137087 -424.27734375 214.03515625 C-418.53625393 206.2860813 -412.65611335 198.68733794 -406.4375 191.3125 C-405.76533447 190.51295898 -405.76533447 190.51295898 -405.07958984 189.69726562 C-403.59936279 187.94002823 -402.11330202 186.18790208 -400.625 184.4375 C-399.96951172 183.662854 -399.96951172 183.662854 -399.30078125 182.87255859 C-390.15645868 172.19449548 -380.39051744 162.09882631 -370.43603516 152.18066406 C-368.67101456 150.4210652 -366.91148867 148.65609603 -365.15234375 146.890625 C-359.41758276 141.15214216 -353.65533791 135.53283339 -347.4375 130.3125 C-346.39273704 129.412029 -345.34844377 128.51101267 -344.3046875 127.609375 C-336.50445293 120.97001085 -328.57841894 114.53004839 -320.4375 108.3125 C-319.74446777 107.78285645 -319.05143555 107.25321289 -318.33740234 106.70751953 C-290.50844476 85.55948764 -260.63812269 67.97746039 -229.4375 52.3125 C-228.59155273 51.88485352 -227.74560547 51.45720703 -226.87402344 51.01660156 C-177.79627089 26.36407155 -123.35440904 11.47676012 -69.125 4.0625 C-68.03203613 3.91143799 -66.93907227 3.76037598 -65.81298828 3.60473633 C-43.93230395 0.78905529 -22.04357983 -0.06657047 0 0 Z M-154.4375 129.3125 C-154.4375 212.8025 -154.4375 296.2925 -154.4375 382.3125 C-57.4175 382.3125 39.6025 382.3125 139.5625 382.3125 C139.5625 384.9525 139.5625 387.5925 139.5625 390.3125 C42.5425 390.3125 -54.4775 390.3125 -154.4375 390.3125 C-154.4375 427.9325 -154.4375 465.5525 -154.4375 504.3125 C-157.0775 504.3125 -159.7175 504.3125 -162.4375 504.3125 C-162.4375 466.6925 -162.4375 429.0725 -162.4375 390.3125 C-255.4975 390.3125 -348.5575 390.3125 -444.4375 390.3125 C-444.4375 486.0125 -444.4375 581.7125 -444.4375 680.3125 C-351.3775 680.3125 -258.3175 680.3125 -162.4375 680.3125 C-162.4375 661.8325 -162.4375 643.3525 -162.4375 624.3125 C-159.7975 624.3125 -157.1575 624.3125 -154.4375 624.3125 C-154.4375 642.7925 -154.4375 661.2725 -154.4375 680.3125 C-106.9175 680.3125 -59.3975 680.3125 -10.4375 680.3125 C-10.4375 682.9525 -10.4375 685.5925 -10.4375 688.3125 C-57.9575 688.3125 -105.4775 688.3125 -154.4375 688.3125 C-154.4375 716.0325 -154.4375 743.7525 -154.4375 772.3125 C-157.0775 772.3125 -159.7175 772.3125 -162.4375 772.3125 C-162.4375 744.5925 -162.4375 716.8725 -162.4375 688.3125 C-255.4975 688.3125 -348.5575 688.3125 -444.4375 688.3125 C-451.42667261 777.48067903 -451.42667261 777.48067903 -423.4375 829.3125 C-423.00115234 829.94575195 -422.56480469 830.57900391 -422.11523438 831.23144531 C-415.22398511 841.20464029 -408.0512597 850.88044063 -400.4375 860.3125 C-399.70144531 861.23160156 -398.96539062 862.15070312 -398.20703125 863.09765625 C-382.47528988 882.55458228 -365.6713358 902.11970782 -346.62109375 918.41015625 C-344.42886165 920.32002572 -342.29279118 922.28391947 -340.16186523 924.26171875 C-334.11804588 929.86869334 -327.88440105 935.16923771 -321.4375 940.3125 C-320.69448545 941.00326504 -319.95147089 941.69403008 -319.18594074 942.40572739 C-315.83340236 944.73160194 -314.03897761 944.80671835 -309.98979187 944.79351807 C-308.0358123 944.80176605 -308.0358123 944.80176605 -306.0423584 944.81018066 C-304.60595332 944.79602578 -303.16955199 944.78148656 -301.7331543 944.76660156 C-300.21519501 944.76547284 -298.69723353 944.76610744 -297.17927551 944.76837158 C-293.06380861 944.76951869 -288.94880854 944.74601015 -284.83345008 944.71807575 C-280.53065851 944.69306149 -276.22785611 944.69072008 -271.92500305 944.68597412 C-263.77939393 944.67354441 -255.63399968 944.64072289 -247.48848516 944.60057616 C-236.47975052 944.54749592 -225.47095708 944.52591295 -214.46212673 944.50256729 C-197.12042355 944.46496144 -179.77917381 944.38527075 -162.4375 944.3125 C-162.4375 907.6825 -162.4375 871.0525 -162.4375 833.3125 C-159.7975 833.3125 -157.1575 833.3125 -154.4375 833.3125 C-154.4375 869.9425 -154.4375 906.5725 -154.4375 944.3125 C-58.4075 944.3125 37.6225 944.3125 136.5625 944.3125 C136.5625 906.6925 136.5625 869.0725 136.5625 830.3125 C139.2025 830.3125 141.8425 830.3125 144.5625 830.3125 C144.5625 867.9325 144.5625 905.5525 144.5625 944.3125 C174.96856363 944.66232004 174.96856363 944.66232004 205.375 944.8984375 C217.78153245 944.96954506 230.1870844 945.05297229 242.59277344 945.21777344 C251.62937673 945.33776087 260.66518201 945.41488718 269.70255983 945.44156194 C274.48384039 945.4571446 279.26283902 945.49349198 284.04338455 945.58126068 C288.55361056 945.66338699 293.06063998 945.68771049 297.57154274 945.66979218 C299.21709838 945.67306437 300.86277301 945.69654742 302.50767708 945.7429657 C311.99882853 945.99741588 318.05624942 944.99528068 325.29110718 938.52032471 C326.91296804 936.9727212 328.49676084 935.39840974 330.0622642 933.79392099 C332.35166263 931.53323444 334.83866315 929.60310912 337.375 927.625 C341.68702585 924.12859194 345.5934633 920.38786042 349.46484375 916.4140625 C351.34953065 914.52586594 353.27867096 912.7863718 355.3125 911.0625 C363.35293408 904.14998253 370.91909728 896.4656771 377.7734375 888.37890625 C379.59954694 886.26970998 381.49420486 884.23381161 383.40161133 882.19824219 C388.30621677 876.9465207 392.99193434 871.57833801 397.26057053 865.7909174 C399.5373642 862.73152086 401.75928244 860.03945033 404.68951416 857.58824158 C411.62176515 851.34847085 414.16244471 845.14696184 414.74263835 835.8300007 C415.08288639 827.91911347 414.93994389 820.00222509 414.77922726 812.08872342 C414.70357309 807.72880476 414.69711321 803.36875931 414.68292236 799.00828552 C414.64580843 790.77364271 414.54759422 782.54094011 414.42672849 774.30714697 C414.29201717 764.92394008 414.2264764 755.54063438 414.16638327 746.1566993 C414.04136891 726.87398014 413.82154723 707.59391646 413.5625 688.3125 C394.4225 688.3125 375.2825 688.3125 355.5625 688.3125 C355.5625 685.6725 355.5625 683.0325 355.5625 680.3125 C374.7025 680.3125 393.8425 680.3125 413.5625 680.3125 C413.58538924 653.74021022 413.60367325 627.16792886 413.61431217 600.5956316 C413.61939111 588.24775136 413.62629279 575.89987789 413.63793945 563.55200195 C413.65116865 549.24951222 413.6593676 534.94702736 413.66015625 520.64453125 C413.66025279 518.89376526 413.66025279 518.89376526 413.66035128 517.10763025 C413.65953769 492.11809624 413.61822602 467.13022628 413.33544922 442.14208984 C413.32569132 441.27974141 413.31593342 440.41739298 413.30587983 439.52891278 C413.111233 422.7892991 412.82601979 406.05119391 412.5625 389.3125 C391.4425 389.3125 370.3225 389.3125 348.5625 389.3125 C348.5625 386.6725 348.5625 384.0325 348.5625 381.3125 C369.6825 381.3125 390.8025 381.3125 412.5625 381.3125 C412.81134518 361.08399713 413.01374559 340.85674397 413.13243389 320.62709618 C413.18902143 311.23293419 413.26608979 301.83979455 413.39233398 292.44628906 C413.50238826 284.25348966 413.57303695 276.061431 413.59747344 267.86791289 C413.61174661 263.53383523 413.64499326 259.20187552 413.72553062 254.86848068 C413.80091801 250.77855379 413.82308922 246.69158991 413.80668449 242.60103416 C413.80967944 241.11029688 413.83114249 239.61944731 413.87376022 238.12931633 C414.1890933 226.52174804 410.61196613 220.09404137 402.93130934 211.81070638 C400.88279543 209.56854123 399.01211621 207.19065557 397.125 204.8125 C386.58891777 191.91005241 386.58891777 191.91005241 375.11328125 179.859375 C373.45587921 178.20614778 371.9526415 176.47175422 370.4375 174.6875 C363.46916573 166.61807453 355.76801489 159.0074118 347.640625 152.109375 C345.48063593 150.24171528 343.38511237 148.31166812 341.29248047 146.36914062 C335.8984011 141.36266999 330.38220338 136.60530873 324.64453125 131.9921875 C322.5625 130.3125 322.5625 130.3125 321.5625 129.3125 C319.25893567 129.21538058 316.95232342 129.1906343 314.64671326 129.19224548 C313.91490296 129.19139106 313.18309266 129.19053663 312.4291063 129.18965632 C309.95849121 129.18799934 307.4879429 129.19352641 305.01733398 129.19897461 C303.25366213 129.19925646 301.48999015 129.19909879 299.72631836 129.1985321 C294.92280157 129.19824405 290.11930953 129.20414208 285.31579852 129.21110606 C280.30160315 129.21733826 275.28740727 129.21794329 270.27320862 129.21913147 C260.7711324 129.22224518 251.26906762 129.23045911 241.76699644 129.24048096 C228.93177342 129.25372574 216.09654729 129.25914168 203.26131916 129.26498318 C183.02837086 129.27439897 162.79544672 129.29431762 142.5625 129.3125 C142.5625 171.2225 142.5625 213.1325 142.5625 256.3125 C139.9225 256.3125 137.2825 256.3125 134.5625 256.3125 C134.5625 214.4025 134.5625 172.4925 134.5625 129.3125 C39.1925 129.3125 -56.1775 129.3125 -154.4375 129.3125 Z " fill="#FAFCFA" transform="translate(529.4375,-0.3125)"/>
<path d="M0 0 C1.59329435 0.00276234 3.18659969 0.00154649 4.77988911 -0.00328732 C9.01716163 -0.00530542 13.25211055 0.04655148 17.4888382 0.1102066 C21.47565902 0.16176297 25.46193716 0.16389035 29.44909668 0.17028809 C41.08070713 0.21736703 52.71189238 0.34301896 64.34301758 0.45922852 C90.35114258 0.64485352 116.35926758 0.83047852 143.15551758 1.02172852 C143.15551758 84.18172852 143.15551758 167.34172852 143.15551758 253.02172852 C50.09551758 253.02172852 -42.96448242 253.02172852 -138.84448242 253.02172852 C-138.84448242 142.41646536 -138.84448242 142.41646536 -117.84448242 112.02172852 C-117.18996094 111.07185059 -117.18996094 111.07185059 -116.5222168 110.1027832 C-109.63096753 100.12958822 -102.45824212 90.45378789 -94.84448242 81.02172852 C-94.10842773 80.10262695 -93.37237305 79.18352539 -92.61401367 78.23657227 C-76.87712337 58.77327806 -60.07438386 39.16657301 -40.99291992 22.88891602 C-37.33144141 19.70675832 -33.80785187 16.37116515 -30.26245117 13.06079102 C-29.73878369 12.60142371 -29.21511621 12.14205641 -28.67558002 11.66876888 C-27.29258501 10.42478898 -25.96283808 9.12125995 -24.661479 7.79211521 C-16.86922648 0.44116856 -10.208107 -0.23336532 0 0 Z " fill="#30AF56" transform="translate(223.844482421875,128.978271484375)"/>
<path d="M0 0 C0.86963379 -0.00067474 1.73926758 -0.00134949 2.63525391 -0.00204468 C38.74794359 0.04168221 74.2559403 4.46624861 109.5625 11.875 C110.26250122 12.02102661 110.96250244 12.16705322 111.68371582 12.31750488 C113.67776011 12.73721037 115.66927597 13.16711984 117.66015625 13.6015625 C118.79074463 13.84729004 119.92133301 14.09301758 121.08618164 14.34619141 C124.97324756 15.37529232 128.73503329 16.83813748 132.5 18.25 C132.5 46.96 132.5 75.67 132.5 105.25 C37.79 105.25 -56.92 105.25 -154.5 105.25 C-154.5 78.52 -154.5 51.79 -154.5 24.25 C-125.56503801 11.849302 -91.69265181 7.09617268 -60.625 3.375 C-59.34163757 3.21954208 -59.34163757 3.21954208 -58.03234863 3.0609436 C-38.73923914 0.7599028 -19.42096913 0.01393013 0 0 Z " fill="#30AF56" transform="translate(530.5,15.75)"/>
<path d="M0 0 C96.36 0 192.72 0 292 0 C292 27.39 292 54.78 292 83 C284.12028285 86.37702163 284.12028285 86.37702163 280.19921875 87.2109375 C279.3187085 87.40115479 278.43819824 87.59137207 277.53100586 87.78735352 C276.12347046 88.07823853 276.12347046 88.07823853 274.6875 88.375 C273.68404541 88.58632568 272.68059082 88.79765137 271.64672852 89.01538086 C268.4330532 89.68649888 265.21678355 90.3439582 262 91 C260.96810547 91.21446777 259.93621094 91.42893555 258.87304688 91.64990234 C208.57292691 102.05927664 156.17156487 105.63654891 105 100 C104.33043274 99.92694641 103.66086548 99.85389282 102.9710083 99.77862549 C68.04026405 95.93028083 33.38453158 89.12817719 0 78 C0 52.26 0 26.52 0 0 Z " fill="#30AF56" transform="translate(374,952)"/>
<path d="M0 0 C24.42 0 48.84 0 74 0 C83.73600089 37.72700346 83.73600089 37.72700346 87 57 C87.18014648 58.04978027 87.36029297 59.09956055 87.54589844 60.18115234 C95.21737946 105.71756546 97.01529999 153.06622074 92 199 C91.81433678 200.95044794 91.62945255 202.90097017 91.4453125 204.8515625 C84.95094399 269.09811203 84.95094399 269.09811203 74 291 C49.91 291 25.82 291 1 291 C0.7375858 249.05590166 0.7375858 249.05590166 0.64428711 233.42138672 C0.63854734 232.45973783 0.63280758 231.49808895 0.62689388 230.50729918 C0.58428919 223.35903459 0.54205479 216.21076785 0.5 209.0625 C0.49405146 208.05273637 0.48810292 207.04297274 0.48197412 206.00261021 C0.16694737 152.45996807 -0.10102411 98.91869601 -0.0625 45.375 C-0.06164398 44.17613789 -0.06078796 42.97727577 -0.05990601 41.7420845 C-0.049176 27.82802742 -0.02649734 13.91404521 0 0 Z " fill="#30AF56" transform="translate(950,389)"/>
<path d="M0 0 C13.53 0 27.06 0 41 0 C41 95.7 41 191.4 41 290 C27.47 290 13.94 290 0 290 C-16.44773535 227.49860569 -25.96143697 161.80389486 -18.359375 97.07324219 C-18.01948899 94.16666265 -17.70820975 91.25789385 -17.40237427 88.3475647 C-14.2480337 58.5876315 -9.48402733 28.45208198 0 0 Z " fill="#30AF56" transform="translate(36,390)"/>
<path d="M0 0 C224.07 0 448.14 0 679 0 C679 5.28 679 10.56 679 16 C454.93 16 230.86 16 0 16 C0 10.72 0 5.44 0 0 Z " fill="#FDFDFD" transform="translate(189,793)"/>
<path d="M0 0 C-2.26031981 5.77346521 -4.88622576 11.3471349 -7.5625 16.9375 C-8.05041016 18.00935547 -8.53832031 19.08121094 -9.04101562 20.18554688 C-12.10389684 26.51916168 -14.76023841 30.36458566 -21.01342773 33.74536133 C-24.30909075 35.82676876 -25.39157068 38.51506981 -27 42 C-27.33 42.66 -27.66 43.32 -28 44 C-28.9011947 50.69458918 -27.68948458 55.75305209 -24.77734375 61.7734375 C-21.93722493 65.33138855 -18.35302372 67.59495711 -13.86759949 68.36706543 C-11.47941775 68.50647586 -9.11866994 68.52751038 -6.7265625 68.50390625 C-5.8445517 68.51332748 -4.96254089 68.52274872 -4.05380249 68.53245544 C-1.24396436 68.56096482 1.56502967 68.56419304 4.375 68.5625 C25.97464777 68.59092558 48.64523068 68.73268934 65 85 C67.2932482 87.86049986 69.20146783 90.80924858 71 94 C71.5775 94.99 72.155 95.98 72.75 97 C77.97764013 109.54633632 76.53760226 121.43203586 72 134 C66.9100803 146.16341104 56.6936464 156.01850055 44.79296875 161.46875 C35.70110097 165.10973081 27.15881151 167.3217933 17.35913086 167.22705078 C16.54827026 167.22734283 15.73740967 167.22763489 14.90197754 167.22793579 C12.25615245 167.22655679 9.61061885 167.21106392 6.96484375 167.1953125 C5.11682794 167.19157727 3.26881013 167.18873271 1.42079163 167.18673706 C-3.41740491 167.17914073 -8.25547929 167.15952703 -13.09362793 167.1373291 C-18.04091744 167.11678405 -22.9882269 167.10771691 -27.93554688 167.09765625 C-37.62375127 167.07627701 -47.31186543 167.04218992 -57 167 C-55.61103023 163.85109339 -54.21254373 160.70649679 -52.8125 157.5625 C-52.42513672 156.68400391 -52.03777344 155.80550781 -51.63867188 154.90039062 C-49.04340565 149.08785221 -46.18873923 143.50935326 -43 138 C-41.69906906 137.99453156 -41.69906906 137.99453156 -40.37185669 137.98895264 C-32.16313799 137.95094713 -23.95481154 137.89395289 -15.74637032 137.81609726 C-11.52718773 137.77673621 -7.3082103 137.74449244 -3.08886719 137.72900391 C0.98979591 137.71376174 5.06789458 137.67918432 9.14630508 137.63169098 C10.6954162 137.61695455 12.24460794 137.60896347 13.79378891 137.60811615 C23.97008225 137.59696159 32.03261892 136.55503553 40.9375 131.25 C44.75926171 127.0808054 45.78720592 122.64915409 46.5 117.125 C46.23238626 111.90653206 44.40816775 106.94189968 41 103 C34.12298584 98.53505842 28.06605969 97.26038188 19.98046875 97.21484375 C18.44982536 97.17309776 18.44982536 97.17309776 16.88825989 97.13050842 C13.65472696 97.04388697 10.42179037 96.98757091 7.1875 96.9375 C-12.65023562 96.59606133 -29.53388532 96.02178669 -44.8125 81.75 C-49.06047794 77.2697693 -51.77842228 72.7412538 -54 67 C-54.31839844 66.18144531 -54.63679687 65.36289062 -54.96484375 64.51953125 C-58.91323221 52.49241249 -58.5880532 38.40620271 -53 27 C-44.97689983 13.21774376 -34.20465652 4.79100867 -18.76171875 0.6796875 C-12.48234384 -0.45490361 -6.36284938 -0.32081594 0 0 Z " fill="#FCFDFC" transform="translate(637,270)"/>
<path d="M0 0 C7.26627527 1.03803932 13.70591761 2.98501662 20.625 5.3125 C21.28071991 5.53208374 21.93643982 5.75166748 22.61203003 5.97790527 C73.75658375 23.18928078 125.00543073 48.7998773 167 83 C167 83.33 167 83.66 167 84 C111.89 84 56.78 84 0 84 C0 56.28 0 28.56 0 0 Z " fill="#30AF56" transform="translate(672,37)"/>
<path d="M0 0 C53.13 0 106.26 0 161 0 C157.20878296 3.79121704 154.14934354 6.45067178 149.79296875 9.37109375 C148.90298691 9.96935219 148.90298691 9.96935219 147.99502563 10.57969666 C146.0640674 11.87313878 144.12664316 13.15636598 142.1875 14.4375 C141.51939301 14.88063538 140.85128601 15.32377075 140.16293335 15.78033447 C104.37702187 39.47912647 66.40132652 58.52768861 26 73 C24.93217285 73.38381836 23.8643457 73.76763672 22.76416016 74.16308594 C19.57493848 75.30491191 16.38236629 76.43657256 13.1875 77.5625 C11.71869385 78.08299927 11.71869385 78.08299927 10.22021484 78.61401367 C9.31609863 78.92830322 8.41198242 79.24259277 7.48046875 79.56640625 C6.68535889 79.84427979 5.89024902 80.12215332 5.07104492 80.40844727 C3 81 3 81 0 81 C0 54.27 0 27.54 0 0 Z " fill="#32AF57" transform="translate(674,952)"/>
<path d="M0 0 C8.58 0 17.16 0 26 0 C26 39.93 26 79.86 26 121 C17.75 121 9.5 121 1 121 C0.67 117.37 0.34 113.74 0 110 C-0.9075 111.19625 -1.815 112.3925 -2.75 113.625 C-8.22547118 119.7794296 -14.54903477 123.39851821 -22.7578125 124.5078125 C-33.09782886 124.82114633 -40.69543228 122.95340445 -48.75 116.4375 C-56.70585738 108.88999636 -60.92041383 99.09112865 -61.3359375 88.234375 C-61.35968879 86.07300795 -61.37242985 83.91149602 -61.375 81.75 C-61.39949219 80.68136719 -61.42398437 79.61273437 -61.44921875 78.51171875 C-61.49182596 66.82314076 -58.11532987 57.49625352 -50 49 C-42.05425977 41.58938105 -33.96604413 39.41766621 -23.21484375 39.71875 C-14.91380098 40.44496516 -8.69169204 42.79088141 -3 49 C-2.34 49.99 -1.68 50.98 -1 52 C-0.67 34.84 -0.34 17.68 0 0 Z " fill="#FCFDFC" transform="translate(467,481)"/>
<path d="M0 0 C10.00823415 5.49041058 15.82684878 14.42138727 19.06152344 25.27807617 C21.24343334 35.86231827 20.58727641 49.4018853 16.4921875 59.3671875 C16.20214844 60.08777344 15.91210938 60.80835938 15.61328125 61.55078125 C11.7302039 70.14554241 6.10996938 75.57654805 -2.5078125 79.3671875 C-10.88307743 82.29853023 -21.37279494 83.15805697 -29.65625 79.4921875 C-33.76340277 76.99670227 -38.32621272 73.73038707 -40.5078125 69.3671875 C-40.8378125 83.8871875 -41.1678125 98.4071875 -41.5078125 113.3671875 C-50.4178125 113.3671875 -59.3278125 113.3671875 -68.5078125 113.3671875 C-68.5078125 75.7471875 -68.5078125 38.1271875 -68.5078125 -0.6328125 C-59.9278125 -0.6328125 -51.3478125 -0.6328125 -42.5078125 -0.6328125 C-42.1778125 2.9971875 -41.8478125 6.6271875 -41.5078125 10.3671875 C-41.0334375 9.6659375 -40.5590625 8.9646875 -40.0703125 8.2421875 C-29.72725855 -3.36221449 -14.2069856 -6.11279796 0 0 Z " fill="#FAFCFB" transform="translate(805.5078125,659.6328125)"/>
<path d="M0 0 C-4.30317612 5.14249007 -8.8134383 9.9521007 -13.56591797 14.67944336 C-14.29831192 15.41198334 -15.03070587 16.14452332 -15.78529358 16.89926147 C-18.18522657 19.29850275 -20.58867255 21.69419129 -22.9921875 24.08984375 C-24.6653493 25.76113873 -26.33828915 27.43265592 -28.01101685 29.10438538 C-32.39817939 33.48774351 -36.78833757 37.86808925 -41.17913818 42.24780273 C-45.6655185 46.72392418 -50.14904292 51.20290426 -54.6328125 55.68164062 C-63.41909099 64.45721843 -72.2085386 73.22961471 -81 82 C-79.22246067 85.82895618 -76.79927183 88.44279934 -73.80078125 91.359375 C-73.28750778 91.8674469 -72.77423431 92.3755188 -72.2454071 92.89898682 C-70.60580301 94.52083649 -68.95968847 96.1358566 -67.3125 97.75 C-65.15931964 99.8663273 -63.00939186 101.98587853 -60.86328125 104.109375 C-60.0755986 104.88867371 -60.0755986 104.88867371 -59.27200317 105.68371582 C-56.62872435 108.31664327 -54.0777933 110.98036044 -51.66796875 113.828125 C-45.88644213 120.61501978 -39.33097132 126.73270225 -33 133 C-17.54431178 148.30024308 -17.54431178 148.30024308 -12.40576172 154.37158203 C-9.64958517 157.56430477 -6.5883547 160.45153693 -3.56835938 163.39257812 C-2.36238437 164.57848143 -1.17880642 165.78708707 0 167 C0 167.33 0 167.66 0 168 C-35.16098283 172.93174713 -35.16098283 172.93174713 -48.68994141 162.80419922 C-56.34794788 156.63409479 -62.94561684 149.32363462 -69.45831299 141.98773193 C-71.95146622 139.23097528 -74.54115845 136.57620511 -77.13930988 133.91875362 C-80.27533346 130.70120291 -83.35231976 127.42951822 -86.42578125 124.15234375 C-86.99941217 123.55008406 -87.5730431 122.94782436 -88.16405678 122.32731438 C-95.3141193 114.72665851 -99.2420014 108.78187215 -100.5431366 98.30860901 C-101.8470285 88.86581171 -107.70394036 81.77690841 -115 76 C-119.50359452 73.04335681 -124.22761062 70.49141807 -129 68 C-127.40494365 62.61668482 -125.03208247 57.7986578 -122.5 52.8125 C-122.06220215 51.94407471 -121.6244043 51.07564941 -121.17333984 50.1809082 C-115.34698143 38.66849791 -109.46303686 27.17013449 -103 16 C-102.67 16 -102.34 16 -102 16 C-101.67 31.18 -101.34 46.36 -101 62 C-96.97683594 57.524375 -92.95367188 53.04875 -88.80859375 48.4375 C-86.17131967 45.60026663 -83.53024081 42.77150378 -80.86523438 39.9609375 C-76.65820591 35.52298263 -72.47838785 31.07429856 -68.43139648 26.48925781 C-47.362776 2.69538905 -31.90119489 -5.14635812 0 0 Z " fill="#FBFDFC" transform="translate(815,269)"/>
<path d="M0 0 C0 26.07 0 52.14 0 79 C-48.84 79 -97.68 79 -148 79 C-144.25841032 75.25841032 -140.67712047 72.07368191 -136.4375 69 C-135.79111572 68.52997559 -135.14473145 68.05995117 -134.47875977 67.57568359 C-40.46860276 0 -40.46860276 0 0 0 Z " fill="#33B059" transform="translate(368,43)"/>
<path d="M0 0 C46.53 0 93.06 0 141 0 C141 24.42 141 48.84 141 74 C135.91658074 73.27379725 132.61206442 72.6769875 128.03515625 70.8828125 C126.91753906 70.44638428 125.79992187 70.00995605 124.6484375 69.56030273 C123.46507812 69.08665283 122.28171875 68.61300293 121.0625 68.125 C120.44906738 67.88145782 119.83563477 67.63791565 119.20361328 67.38699341 C106.59238826 62.37492877 94.23990532 56.85878825 82 51 C81.14535156 50.59458984 80.29070312 50.18917969 79.41015625 49.77148438 C59.98012566 40.51114998 41.57701179 29.56522132 23.6875 17.625 C23.12940643 17.2525415 22.57131287 16.88008301 21.99630737 16.49633789 C6.51603596 6.13394489 6.51603596 6.13394489 0 1 C0 0.67 0 0.34 0 0 Z " fill="#30AF56" transform="translate(225,952)"/>
<path d="M0 0 C8.91 0 17.82 0 27 0 C27.33 24.75 27.66 49.5 28 75 C39.43013054 62.6757513 39.43013054 62.6757513 49.20922852 48.68969727 C50.9156819 45.80091344 52.29343143 44.01051835 55 42 C60.8489856 40.87317315 66.51408888 41.14803508 72.4375 41.4375 C74.04350771 41.48269175 75.64963743 41.52374818 77.25585938 41.56054688 C81.1736053 41.65926933 85.0854539 41.8142583 89 42 C87.37915347 45.44401787 85.57463755 47.60671518 82.8125 50.25 C79.293651 53.62710902 76.07896721 57.16859686 72.88891602 60.85058594 C69.69910008 64.4803054 66.37831573 67.98569088 63.0625 71.5 C62.37865234 72.22703125 61.69480469 72.9540625 60.99023438 73.703125 C59.32805493 75.46991714 57.66463361 77.23552048 56 79 C57.27764361 81.78170507 58.62420882 83.89330001 60.73046875 86.109375 C61.27904541 86.69154785 61.82762207 87.2737207 62.39282227 87.87353516 C62.98506592 88.49276855 63.57730957 89.11200195 64.1875 89.75 C65.4505729 91.08588827 66.71359183 92.42182758 67.9765625 93.7578125 C68.63430664 94.45036133 69.29205078 95.14291016 69.96972656 95.85644531 C72.01745798 98.01843207 74.05353264 100.19079225 76.0859375 102.3671875 C77.08330933 103.43501465 77.08330933 103.43501465 78.10083008 104.52441406 C79.37937378 105.89349807 80.65785969 107.26263605 81.9362793 108.63183594 C84.55273644 111.42529817 87.17371458 114.18358609 89.93359375 116.8359375 C92 119 92 119 92 121 C58.00498566 123.42516957 58.00498566 123.42516957 51.25390625 118.26953125 C48.60424915 115.45948232 46.72180949 112.29559332 44.99316406 108.85546875 C43.44896046 105.97052594 41.33052214 103.64464591 39.1875 101.1875 C35.37230837 96.51941124 31.70502345 91.76360158 28 87 C27.67 98.22 27.34 109.44 27 121 C18.09 121 9.18 121 0 121 C0 81.07 0 41.14 0 0 Z " fill="#FCFDFC" transform="translate(542,617)"/>
<path d="M0 0 C8.91 0 17.82 0 27 0 C27.33 24.75 27.66 49.5 28 75 C36.60023088 64.90068725 36.60023088 64.90068725 44.875 54.5625 C45.74650107 53.43810799 46.61889025 52.31440376 47.4921875 51.19140625 C47.85683105 50.71904541 48.22147461 50.24668457 48.59716797 49.76000977 C49.06010254 49.17920654 49.52303711 48.59840332 50 48 C50.71325439 46.95626221 51.42650879 45.91252441 52.16137695 44.8371582 C54.43764918 42.13131699 54.93183335 42.01258753 58.6887207 41.31884766 C60.10143047 41.3197887 61.51438369 41.35317989 62.92578125 41.4140625 C64.04716743 41.42679703 64.04716743 41.42679703 65.19120789 41.43978882 C67.56647188 41.47323471 69.93827219 41.54848186 72.3125 41.625 C73.92768514 41.6551117 75.54292381 41.68248542 77.15820312 41.70703125 C81.10679239 41.77299499 85.05281015 41.87644241 89 42 C87.28974534 45.66434951 85.24002076 47.9345589 82.3125 50.75 C78.7476153 54.24389127 75.37802357 57.78354023 72.13671875 61.57421875 C66.90488192 67.51383606 61.41856366 73.23101561 56 79 C59.60794008 86.60119415 66.37573694 92.4538843 72.32421875 98.29296875 C74.72837583 100.7419586 76.93325875 103.35016707 79.16796875 105.953125 C81.70984466 108.7930887 84.44083311 111.41879146 87.203125 114.04296875 C89.18518037 116.20168558 90.52627263 118.47490661 92 121 C58.02172786 123.4239752 58.02172786 123.4239752 51.32421875 118.33984375 C48.69033646 115.54303674 46.84097375 112.37101175 45.09667969 108.96337891 C43.21618584 105.59674233 40.62120734 102.86290406 38.0625 100 C37.19553168 98.98229614 36.33207666 97.96158582 35.47265625 96.9375 C34.65667969 95.968125 33.84070313 94.99875 33 94 C31.35 92.02 29.7 90.04 28 88 C27.67 98.89 27.34 109.78 27 121 C18.09 121 9.18 121 0 121 C0 81.07 0 41.14 0 0 Z " fill="#FCFDFC" transform="translate(779,481)"/>
<path d="M0 0 C5.63052632 5.63052632 5.63052632 5.63052632 7.62109375 8.80078125 C8.07411865 9.51766113 8.52714355 10.23454102 8.99389648 10.97314453 C9.47028564 11.74513184 9.9466748 12.51711914 10.4375 13.3125 C10.9519165 14.13862793 11.46633301 14.96475586 11.99633789 15.81591797 C71 111.21593289 71 111.21593289 71 144 C47.57 144 24.14 144 0 144 C0 96.48 0 48.96 0 0 Z " fill="#30AF56" transform="translate(950,237)"/>
<path d="M0 0 C8.55596058 6.7350127 14.87632502 15.71015954 17.1875 26.4375 C18.57262027 39.46081471 15.50009479 51.46936329 7.35546875 61.75 C-0.88852265 70.80462506 -11.26245897 75.70070158 -23.4453125 76.640625 C-36.92209778 76.89410685 -48.03000234 73.48830985 -58.09765625 64.3671875 C-67.86365675 54.18134025 -70.39986732 42.92241117 -70.14453125 29.3203125 C-69.61719486 18.02272709 -63.99054458 9.90962217 -55.8125 2.4375 C-39.54938167 -10.42613707 -17.38923112 -11.63263126 0 0 Z " fill="#FCFDFC" transform="translate(703.8125,664.5625)"/>
<path d="M0 0 C23.1 0 46.2 0 70 0 C63.87642977 22.45309084 55.53810113 43.78993685 46 65 C45.57074219 65.95777344 45.14148438 66.91554688 44.69921875 67.90234375 C38.71429007 81.14518594 31.83314527 93.79327722 24.53564453 106.35498047 C23.13727839 108.76354944 21.75224019 111.17918859 20.37109375 113.59765625 C15.97026176 121.2513908 11.31788721 128.70461179 6.4375 136.0625 C5.6494397 137.2522644 5.6494397 137.2522644 4.84545898 138.46606445 C4.35891846 139.19011475 3.87237793 139.91416504 3.37109375 140.66015625 C2.7203186 141.62900757 2.7203186 141.62900757 2.05639648 142.61743164 C1.70778564 143.0736792 1.3591748 143.52992676 1 144 C0.67 144 0.34 144 0 144 C0 96.48 0 48.96 0 0 Z " fill="#32B058" transform="translate(951,688)"/>
<path d="M0 0 C0.70398926 0.00749268 1.40797852 0.01498535 2.13330078 0.02270508 C13.26679562 0.25256616 23.00757867 3.14634827 31.375 10.8125 C41.17892685 21.37057507 43.125 33.3655163 43.125 47.25 C23.655 47.25 4.185 47.25 -15.875 47.25 C-13.89934668 58.42060482 -13.89934668 58.42060482 -6.875 64.25 C-2.42656639 66.47421681 3.29894537 65.76245154 8.125 65.25 C12.65694029 63.46343602 15.43030637 61.29204045 18.125 57.25 C25.30716433 59.52435204 32.2008202 62.28584181 39.125 65.25 C35.83728441 73.87661658 31.48750834 76.95693117 23.35546875 80.953125 C11.02549525 85.90300553 -4.85096546 86.56616692 -17.26953125 81.57421875 C-28.53302095 75.84959655 -36.75777396 68.21764008 -40.98828125 56.14453125 C-43.45912992 45.29238973 -43.59589914 32.98348943 -38.56640625 22.8671875 C-33.67990694 15.30609157 -27.16676983 8.1575544 -19 4.125 C-18.38382812 3.81304688 -17.76765625 3.50109375 -17.1328125 3.1796875 C-11.43456021 0.83334832 -6.13341095 -0.08639647 0 0 Z " fill="#FBFDFC" transform="translate(349.875,520.75)"/>
<path d="M0 0 C8.50714744 7.7687332 13.9262687 17.46139496 15 29 C15 32.3 15 35.6 15 39 C-4.8 39 -24.6 39 -45 39 C-42.17023033 49.76369869 -42.17023033 49.76369869 -35.140625 56.22265625 C-29.70897601 58.19509813 -22.79151468 58.10808216 -17.44140625 55.984375 C-14.07595003 53.93422552 -12.21216185 52.31824277 -10 49 C-2.81783567 51.27435204 4.0758202 54.03584181 11 57 C7.90532561 64.46362647 2.60376583 69.91762366 -4.80078125 73.15429688 C-17.03257486 77.85799726 -33.32162603 78.13454096 -45.4609375 73.26171875 C-57.21864597 67.41904208 -64.27046614 60.2733358 -69 48 C-70.40428466 43.78714601 -70.22437686 39.78858505 -70.25 35.375 C-70.270625 34.51003906 -70.29125 33.64507813 -70.3125 32.75390625 C-70.37769285 21.88299858 -66.50839798 12.10069884 -59.18359375 3.98828125 C-43.45332646 -10.66152323 -17.56474365 -12.92378386 0 0 Z " fill="#FBFDFC" transform="translate(580,529)"/>
<path d="M0 0 C8.27577082 7.42275286 13.12665043 17.10051162 15 28 C15 31.63 15 35.26 15 39 C-4.8 39 -24.6 39 -45 39 C-42.2613621 49.42023146 -42.2613621 49.42023146 -36 56 C-29.79466059 58.06844647 -22.4533262 58.10894196 -16.5 55.25 C-13.32790447 53.49699984 -11.72628384 51.72628384 -9 49 C-2.4 51.64 4.2 54.28 11 57 C6.53649371 65.92701259 0.72075039 70.89750435 -8.640625 74.30859375 C-20.96889738 77.92134907 -36.43539807 77.74671758 -48 72 C-57.12503191 67.0057002 -63.99928782 60.66996784 -68 51 C-68.3400708 50.24050049 -68.6801416 49.48100098 -69.03051758 48.69848633 C-70.6634611 44.15330255 -70.3688928 39.5974917 -70.375 34.8125 C-70.39949219 33.82185547 -70.42398438 32.83121094 -70.44921875 31.81054688 C-70.49556717 20.03032382 -66.16790268 11.37877796 -58 3 C-42.10464374 -10.61727783 -17.23150706 -12.64697766 0 0 Z " fill="#FBFDFC" transform="translate(748,529)"/>
<path d="M0 0 C0.95003906 0.35964844 1.90007812 0.71929688 2.87890625 1.08984375 C5.26979739 2.02425322 7.63967635 2.99135844 10 4 C9.22128318 6.98270792 8.42488365 9.96040495 7.625 12.9375 C7.40328125 13.78763672 7.1815625 14.63777344 6.953125 15.51367188 C6.62441406 16.72700195 6.62441406 16.72700195 6.2890625 17.96484375 C5.99056396 19.08814087 5.99056396 19.08814087 5.68603516 20.23413086 C5 22 5 22 3 23 C1.23046875 22.29296875 1.23046875 22.29296875 -0.8125 21.1875 C-6.67253704 18.04778963 -10.91691339 16.72347469 -17.6875 16.75 C-18.36361328 16.74226562 -19.03972656 16.73453125 -19.73632812 16.7265625 C-23.8208338 16.63727432 -23.8208338 16.63727432 -27 19 C-27.38894914 21.49192611 -27.38894914 21.49192611 -26 24 C-21.37367316 27.06563826 -15.83738145 28.35808143 -10.5625 29.875 C-1.38087108 32.61658709 5.98731204 36.43378334 11.07421875 44.7578125 C13.4480056 50.50698402 12.80179787 58.50591412 10.9375 64.375 C7.27431335 72.4306188 -0.00536907 76.88954874 -8 80 C-24.52794809 84.57652178 -42.48926427 80.15810949 -57 72 C-55.47512736 64.96212627 -53.77149249 57.9796804 -52 51 C-48.1617147 52.46591339 -44.53415608 54.19623869 -40.875 56.0625 C-35.26546732 58.92322178 -31.39705636 60.15426518 -25.0625 60.1875 C-23.83660156 60.20167969 -22.61070312 60.21585938 -21.34765625 60.23046875 C-18.24356188 60.01676797 -16.58637449 59.63998182 -14 58 C-14 56.02 -14 54.04 -14 52 C-19.16631603 49.09394723 -24.32396049 47.22926832 -30 45.5625 C-38.91943431 42.8898417 -45.50148365 39.76261131 -51 32 C-53.74565101 26.17032549 -54.09462147 19.9835908 -52.3828125 13.75390625 C-49.3134035 6.78661944 -43.45435298 1.93836678 -36.75 -1.4375 C-25.65349873 -5.42879968 -10.8287033 -4.19458685 0 0 Z " fill="#FBFCFB" transform="translate(285,524)"/>
<path d="M0 0 C0.30221599 8.46204771 -0.85079203 16.63745983 -2 25 C-3.50240234 24.94779297 -3.50240234 24.94779297 -5.03515625 24.89453125 C-13.69357356 24.68030013 -19.90393791 24.54110312 -26.8125 30.375 C-31.33554825 35.8026579 -31.32628151 40.89043305 -31.4140625 47.67578125 C-31.43342865 48.6009404 -31.4527948 49.52609955 -31.4727478 50.47929382 C-31.53235254 53.42360317 -31.57885248 56.36795202 -31.625 59.3125 C-31.66319736 61.31316775 -31.70225012 63.31381936 -31.7421875 65.31445312 C-31.83964276 70.20954972 -31.91936295 75.10448202 -32 80 C-41.24 80 -50.48 80 -60 80 C-60 53.93 -60 27.86 -60 1 C-51.42 1 -42.84 1 -34 1 C-33.505 8.92 -33.505 8.92 -33 17 C-31.700625 14.9271875 -31.700625 14.9271875 -30.375 12.8125 C-22.39690404 0.91075029 -13.70903512 -0.51337579 0 0 Z " fill="#FBFDFB" transform="translate(671,522)"/>
<path d="M0 0 C9.24 0 18.48 0 28 0 C28 26.07 28 52.14 28 79 C18.76 79 9.52 79 0 79 C0 52.93 0 26.86 0 0 Z " fill="#F9FCFA" transform="translate(843,659)"/>
<path d="M0 0 C8.55121914 5.18604934 13.50324528 12.96742807 17.8984375 21.7578125 C18.04597924 23.54533742 18.1195897 25.3394409 18.1484375 27.1328125 C18.17421875 28.08929688 18.2 29.04578125 18.2265625 30.03125 C17.85283664 33.13673397 16.96470041 34.46317316 14.8984375 36.7578125 C11.39800483 35.59100161 11.06126803 34.45554888 9.15625 31.4921875 C0.72676129 19.86891735 -15.58206471 14.34423081 -28.31152344 8.90283203 C-32.76252901 6.96780474 -36.45948879 5.05797725 -40.1015625 1.7578125 C-33.88087774 13.79280563 -24.06228248 17.85798404 -12.06640625 22.70703125 C-7.32299169 24.63644592 -2.69586689 26.74764677 1.8984375 29.0078125 C2.56238525 29.32484131 3.22633301 29.64187012 3.91040039 29.96850586 C7.44158947 31.73109257 9.943436 33.27187232 11.8984375 36.7578125 C11.8984375 38.8203125 11.8984375 38.8203125 10.8984375 40.7578125 C4.28087905 45.58684164 -3.17453301 45.54083761 -11.1015625 44.7578125 C-18.3517203 42.65010679 -24.94194611 39.08541184 -31.1015625 34.7578125 C-31.9678125 34.1596875 -32.8340625 33.5615625 -33.7265625 32.9453125 C-40.64414003 26.57385951 -44.06318877 20.2418528 -44.6015625 10.8203125 C-44.51943524 6.67801876 -44.20475506 4.03302488 -41.6015625 0.7578125 C-29.47108655 -10.75347442 -13.52103777 -7.05001213 0 0 Z " fill="#FAFCFB" transform="translate(813.1015625,336.2421875)"/>
<path d="M0 0 C-1.25051267 3.96898684 -2.69913962 7.64602808 -4.56640625 11.36328125 C-5.05173828 12.33201172 -5.53707031 13.30074219 -6.03710938 14.29882812 C-6.54048828 15.29333984 -7.04386719 16.28785156 -7.5625 17.3125 C-8.06974609 18.32634766 -8.57699219 19.34019531 -9.09960938 20.38476562 C-12.85951188 27.85951188 -12.85951188 27.85951188 -14 29 C-16.14743549 29.09425595 -18.29801026 29.11742648 -20.44750977 29.11352539 C-21.45722336 29.11374443 -21.45722336 29.11374443 -22.48733521 29.1139679 C-24.72205784 29.11326878 -26.9566981 29.10547652 -29.19140625 29.09765625 C-30.73697362 29.09579206 -32.28254157 29.09436816 -33.82810974 29.09336853 C-37.90357077 29.0895434 -41.97899637 29.07971317 -46.05444336 29.06866455 C-50.21011882 29.05845032 -54.36579999 29.05387089 -58.52148438 29.04882812 C-66.68100587 29.03809089 -74.84049853 29.02101454 -83 29 C-81.70406019 25.02354147 -80.28724375 21.33524927 -78.3984375 17.6015625 C-77.90859375 16.62832031 -77.41875 15.65507812 -76.9140625 14.65234375 C-76.40617188 13.65332031 -75.89828125 12.65429688 -75.375 11.625 C-74.859375 10.60277344 -74.34375 9.58054687 -73.8125 8.52734375 C-72.54528127 6.01637331 -71.27435444 3.50735439 -70 1 C-46.65883802 0.2541619 -23.35341937 -0.1517517 0 0 Z " fill="#F8FCF9" transform="translate(712,269)"/>
<path d="M0 0 C0.33 0 0.66 0 1 0 C1 30.03 1 60.06 1 91 C-11.54 91 -24.08 91 -37 91 C-30.33494072 61.00723323 -17.24094953 25.86142429 0 0 Z " fill="#31AF57" transform="translate(76,291)"/>
<path d="M0 0 C12.54 0 25.08 0 38 0 C38 30.03 38 60.06 38 91 C34.79261873 86.99077341 32.85658892 84.02390549 30.71484375 79.49609375 C30.41732208 78.86909073 30.11980042 78.24208771 29.81326294 77.59608459 C28.84580129 75.54725266 27.89044713 73.49311974 26.9375 71.4375 C26.60740936 70.72948242 26.27731873 70.02146484 25.93722534 69.29199219 C0 13.53529023 0 13.53529023 0 0 Z " fill="#30AF56" transform="translate(39,688)"/>
<path d="M0 0 C5.18480145 2.92740281 7.76522614 6.74930912 9.6875 12.3125 C10.64417494 19.65442396 9.71300927 26.03897906 5.6875 32.3125 C1.40503807 36.59496193 -2.74937933 38.39382031 -8.75 38.625 C-13.60235348 38.48820065 -17.17813149 37.42908211 -20.71875 33.91796875 C-25.22823275 28.73992896 -26.60289927 25.28872781 -26.625 18.4375 C-26.64175781 17.24382813 -26.65851562 16.05015625 -26.67578125 14.8203125 C-26.10652579 9.32363072 -24.09048766 5.48055575 -19.8125 2 C-19.2246875 1.50886719 -18.636875 1.01773438 -18.03125 0.51171875 C-12.74764646 -3.17479553 -5.61781388 -2.60902218 0 0 Z " fill="#33B059" transform="translate(788.3125,680.6875)"/>
<path d="M0 0 C5.67521361 2.17628026 9.0982274 5.66073842 12 11 C14.07314452 17.21943355 13.80499213 23.87712598 11.3125 29.9375 C8.91895738 34.68214653 6.08209391 37.3059687 1 39 C-4.84121617 39.47571987 -10.16888893 39.83524365 -15.5625 37.375 C-21.0993563 31.98011437 -23.14447901 27.31139165 -23.25 19.6875 C-23.17647594 13.65852724 -22.77734531 9.71305491 -18.3125 5.3515625 C-12.34798477 0.05805524 -8.0305355 -0.95369382 0 0 Z " fill="#33B058" transform="translate(456,543)"/>
<path d="M0 0 C4.0255932 1.73167976 7.17553775 3.88379037 9.1640625 7.94921875 C10.88347423 14.56733183 11.02855356 22.27861411 8.44921875 28.62890625 C6.00630766 32.60867221 3.00573429 35.22955473 -1.21484375 37.33984375 C-7.73307752 38.14964469 -11.94994983 37.26270588 -17.21484375 33.33984375 C-22.58223396 26.55998243 -23.17005635 19.80650087 -22.21484375 11.33984375 C-18.49299857 1.39353335 -10.1592141 -3.028055 0 0 Z " fill="#33B058" transform="translate(683.21484375,680.66015625)"/>
<path d="M0 0 C6.02292903 2.679693 12.24496568 8.8936642 14.6875 15 C15.03910979 18.48228928 15.28852275 21.7979545 13.6875 25 C11.03460543 23.9191911 9.55212635 22.85666319 7.5625 20.75 C-0.18677285 13.33765206 -10.64788197 9.35552119 -20.3125 5 C-18.07421819 10.51872658 -13.43312043 12.42374763 -8.3125 15 C-5.07505881 16.3675762 -1.80121768 17.63809239 1.50854492 18.81982422 C5.40152105 20.2608339 8.12426484 21.68969128 10.6875 25 C10.6875 25.99 10.6875 26.98 10.6875 28 C5.63375126 30.98195127 0.38053327 30.69324759 -5.3125 30 C-12.81952682 27.40101554 -19.80045621 23.1953396 -23.578125 15.99609375 C-24.9329351 12.31360459 -25.16600537 8.83001568 -24.3125 5 C-18.31914563 -2.57055289 -8.94082805 -2.78397041 0 0 Z " fill="#F9FCFA" transform="translate(846.3125,377)"/>
<path d="M0 0 C4.16869578 3.66339933 6.89420001 6.86022017 7.375 12.4375 C7.27902369 17.23631549 6.04682778 21.02340968 3.0625 24.8125 C-0.58534055 27.68557796 -4.44329286 29.02933021 -9.0625 29.3125 C-14.75235367 28.57832533 -17.47992547 26.38514621 -21.3125 22.25 C-23.61362289 17.38224005 -23.71754618 13.10735889 -22.9375 7.8125 C-18.44873323 -1.49753477 -9.40611713 -3.80247288 0 0 Z " fill="#FBFDFB" transform="translate(864.9375,621.1875)"/>
<path d="M0 0 C1.63671875 1.21875 1.63671875 1.21875 4.01171875 4.09375 C4.38671875 7.40625 4.38671875 7.40625 4.01171875 10.09375 C3.38265625 10.24070312 2.75359375 10.38765625 2.10546875 10.5390625 C-8.20710404 13.24145356 -14.92773305 19.27608566 -21.98828125 27.09375 C-22.31828125 27.75375 -22.64828125 28.41375 -22.98828125 29.09375 C-26.36547413 28.46721195 -28.56944718 27.18913824 -31.36328125 25.21875 C-34.81471941 22.84552971 -38.18927736 20.84713641 -41.98828125 19.09375 C-34.18700604 8.43200721 -13.85608836 -6.31554518 0 0 Z " fill="#F9FCFA" transform="translate(846.98828125,309.90625)"/>
<path d="M0 0 C0.74742608 14.40871388 -2.42478819 24.53441814 -12.09375 35.33984375 C-15.90427955 39.26772656 -15.90427955 39.26772656 -18 41 C-18.66 41 -19.32 41 -20 41 C-20.09796875 40.27554688 -20.1959375 39.55109375 -20.296875 38.8046875 C-21.41167785 31.59691045 -22.78377093 27.21622907 -28 22 C-28 18.20994528 -26.93912579 16.93269414 -24.375 14.09765625 C-23.26242333 13.07229145 -22.13668491 12.06107261 -21 11.0625 C-20.41347656 10.53760986 -19.82695313 10.01271973 -19.22265625 9.47192383 C-6.4164981 -1.81577985 -6.4164981 -1.81577985 0 0 Z " fill="#FAFCFB" transform="translate(854,322)"/>
<path d="M0 0 C2.64 0 5.28 0 8 0 C8 18.15 8 36.3 8 55 C5.36 55 2.72 55 0 55 C0 36.85 0 18.7 0 0 Z " fill="#F4FAF6" transform="translate(665,453)"/>
<path d="M0 0 C3.40007895 2.2667193 5.49970863 4.50493257 7.8125 7.875 C8.1425 9.855 8.4725 11.835 8.8125 13.875 C-1.7475 13.875 -12.3075 13.875 -23.1875 13.875 C-22.2413131 8.19787858 -21.76129964 6.10713115 -18.1875 1.875 C-12.09437174 -1.6402663 -6.67599545 -2.35623369 0 0 Z " fill="#39B25D" transform="translate(727.1875,539.125)"/>
<path d="M0 0 C3.40007895 2.2667193 5.49970863 4.50493257 7.8125 7.875 C8.1425 9.855 8.4725 11.835 8.8125 13.875 C-1.7475 13.875 -12.3075 13.875 -23.1875 13.875 C-22.2413131 8.19787858 -21.76129964 6.10713115 -18.1875 1.875 C-12.09437174 -1.6402663 -6.67599545 -2.35623369 0 0 Z " fill="#39B25D" transform="translate(559.1875,539.125)"/>
<path d="M0 0 C5.32114684 2.33611325 7.49334017 5.04044998 9.76953125 10.3515625 C9.76953125 11.6715625 9.76953125 12.9915625 9.76953125 14.3515625 C-0.79046875 14.3515625 -11.35046875 14.3515625 -22.23046875 14.3515625 C-18.83597334 4.16807626 -18.83597334 4.16807626 -13.23046875 0.3515625 C-9.17116081 -1.67809147 -4.27785569 -1.24364982 0 0 Z " fill="#38B25C" transform="translate(356.23046875,538.6484375)"/>
<path d="M0 0 C2.64 0 5.28 0 8 0 C8 14.19 8 28.38 8 43 C5.36 43 2.72 43 0 43 C0 28.81 0 14.62 0 0 Z " fill="#F9FCF9" transform="translate(665,593)"/>
<path d="M0 0 C2.43464707 1.21425723 4.86473991 2.436986 7.29296875 3.6640625 C8.59098354 4.31803057 9.88917079 4.97165639 11.1875 5.625 C11.88367432 5.97618896 12.57984863 6.32737793 13.29711914 6.68920898 C17.00769647 8.5484323 20.73239054 10.35154455 24.515625 12.05859375 C36.49493266 17.46898501 48.1566159 23.52505442 54 36 C53.34 36.66 52.68 37.32 52 38 C51.649375 37.08992188 51.29875 36.17984375 50.9375 35.2421875 C48.58819891 31.31089737 46.02851631 29.94690029 42 28.125 C41.30447021 27.79185791 40.60894043 27.45871582 39.89233398 27.11547852 C35.17467574 24.89144708 30.37089323 22.90498906 25.53930664 20.9440918 C15.90826841 17.02996951 6.88302719 13.06966692 1 4 C0.25 1.6875 0.25 1.6875 0 0 Z " fill="#3BB35F" transform="translate(773,338)"/>
<path d="M0 0 C0.33 0 0.66 0 1 0 C1 7.26 1 14.52 1 22 C-5.93 22 -12.86 22 -20 22 C-20 21.34 -20 20.68 -20 20 C-18.989375 19.46375 -17.97875 18.9275 -16.9375 18.375 C-9.57562884 14.10036514 -5.29158563 9.45907769 -1.1640625 1.9765625 C-0.58785156 0.99816406 -0.58785156 0.99816406 0 0 Z " fill="#E5F4E9" transform="translate(712,415)"/>
<path d="M0 0 C28.77890918 12.2697853 28.77890918 12.2697853 34 22 C33.01 22.495 33.01 22.495 32 23 C31.55398438 22.2678125 31.10796875 21.535625 30.6484375 20.78125 C26.89975504 16.84458051 22.63224859 15.44116624 17.625 13.5 C5.70144659 8.83927401 5.70144659 8.83927401 1 4 C0.35009766 1.84570312 0.35009766 1.84570312 0 0 Z " fill="#47B869" transform="translate(825,381)"/>
<path d="M0 0 C2.97 0 5.94 0 9 0 C9 4.62 9 9.24 9 14 C6.03 14 3.06 14 0 14 C0 9.38 0 4.76 0 0 Z " fill="#DEF1E4" transform="translate(665,760)"/>
<path d="M0 0 C2.64 0 5.28 0 8 0 C8 3.3 8 6.6 8 10 C5.36 10 2.72 10 0 10 C0 6.7 0 3.4 0 0 Z " fill="#F1F9F3" transform="translate(664,324)"/>
</svg>
